<svg id="diagramSvg" xmlns="http://www.w3.org/2000/svg">
<style id="stylesheet">text {
text-anchor: middle;
font-size: x-small;
}
rect {
fill: aliceblue;
stroke: black;
opacity: 1;
stroke-width: 0.4;
stroke-dasharray: 4, 1;
}
line {
stroke: black;
opacity: 0.30;
stroke-width: 1;
}
</style>
<defs>
<marker id="arrowHead" viewBox="-10 -5 10 10" markerUnits="strokeWidth" markerWidth="6" markerHeight="4" orient="auto">
<path d="M -10 -5 L 0 0 L -10 5 z"></path>
</marker>
</defs>
<g id="diagramGroup"><rect x="659px" y="0px" width="47px" height="17px"></rect><text x="683px" y="0px"><tspan x="683" dy="12.783783783783784">Program</tspan></text><rect x="476px" y="35px" width="47px" height="17px"></rect><text x="500px" y="35px"><tspan x="500" dy="12.783783783783784">Functions</tspan></text><line x1="665px" y1="17px" x2="500px" y2="35px" marker-end="url(#arrowHead)"></line><rect x="526px" y="35px" width="47px" height="17px"></rect><text x="550px" y="35px"><tspan x="550" dy="12.783783783783784">fn</tspan></text><line x1="670px" y1="17px" x2="550px" y2="35px" marker-end="url(#arrowHead)"></line><rect x="576px" y="35px" width="47px" height="17px"></rect><text x="600px" y="35px"><tspan x="600" dy="12.783783783783784">main</tspan></text><line x1="675px" y1="17px" x2="600px" y2="35px" marker-end="url(#arrowHead)"></line><rect x="626px" y="35px" width="47px" height="17px"></rect><text x="650px" y="35px"><tspan x="650" dy="12.783783783783784">(</tspan></text><line x1="681px" y1="17px" x2="650px" y2="35px" marker-end="url(#arrowHead)"></line><rect x="677px" y="35px" width="47px" height="17px"></rect><text x="700px" y="35px"><tspan x="700" dy="12.783783783783784">)</tspan></text><line x1="686px" y1="17px" x2="700px" y2="35px" marker-end="url(#arrowHead)"></line><rect x="727px" y="35px" width="47px" height="17px"></rect><text x="751px" y="35px"><tspan x="751" dy="12.783783783783784">{</tspan></text><line x1="691px" y1="17px" x2="751px" y2="35px" marker-end="url(#arrowHead)"></line><rect x="777px" y="35px" width="47px" height="17px"></rect><text x="801px" y="35px"><tspan x="801" dy="12.783783783783784">Statements</tspan></text><line x1="697px" y1="17px" x2="801px" y2="35px" marker-end="url(#arrowHead)"></line><rect x="891px" y="35px" width="47px" height="17px"></rect><text x="915px" y="35px"><tspan x="915" dy="12.783783783783784">}</tspan></text><line x1="702px" y1="17px" x2="915px" y2="35px" marker-end="url(#arrowHead)"></line><rect x="300px" y="70px" width="47px" height="17px"></rect><text x="324px" y="70px"><tspan x="324" dy="12.783783783783784">FunctionDef</tspan></text><line x1="492px" y1="52px" x2="324px" y2="70px" marker-end="url(#arrowHead)"></line><rect x="658px" y="70px" width="47px" height="17px"></rect><text x="682px" y="70px"><tspan x="682" dy="12.783783783783784">Functions</tspan></text><line x1="508px" y1="52px" x2="682px" y2="70px" marker-end="url(#arrowHead)"></line><rect x="715px" y="70px" width="47px" height="17px"></rect><text x="739px" y="70px"><tspan x="739" dy="12.783783783783784">Stmt</tspan></text><line x1="793px" y1="52px" x2="739px" y2="70px" marker-end="url(#arrowHead)"></line><rect x="832px" y="70px" width="47px" height="17px"></rect><text x="856px" y="70px"><tspan x="856" dy="12.783783783783784">more_Stmts</tspan></text><line x1="809px" y1="52px" x2="856px" y2="70px" marker-end="url(#arrowHead)"></line><rect x="-1px" y="105px" width="47px" height="17px"></rect><text x="23px" y="105px"><tspan x="23" dy="12.783783783783784">fn</tspan></text><line x1="304px" y1="87px" x2="23px" y2="105px" marker-end="url(#arrowHead)"></line><rect x="50px" y="105px" width="47px" height="17px"></rect><text x="73px" y="105px"><tspan x="73" dy="12.783783783783784">ID</tspan></text><line x1="307px" y1="87px" x2="73px" y2="105px" marker-end="url(#arrowHead)"></line><rect x="100px" y="105px" width="47px" height="17px"></rect><text x="124px" y="105px"><tspan x="124" dy="12.783783783783784">(</tspan></text><line x1="310px" y1="87px" x2="124px" y2="105px" marker-end="url(#arrowHead)"></line><rect x="150px" y="105px" width="47px" height="17px"></rect><text x="174px" y="105px"><tspan x="174" dy="12.783783783783784">Parameter_List</tspan></text><line x1="314px" y1="87px" x2="174px" y2="105px" marker-end="url(#arrowHead)"></line><rect x="200px" y="105px" width="47px" height="17px"></rect><text x="224px" y="105px"><tspan x="224" dy="12.783783783783784">)</tspan></text><line x1="317px" y1="87px" x2="224px" y2="105px" marker-end="url(#arrowHead)"></line><rect x="250px" y="105px" width="47px" height="17px"></rect><text x="274px" y="105px"><tspan x="274" dy="12.783783783783784">==&gt;</tspan></text><line x1="321px" y1="87px" x2="274px" y2="105px" marker-end="url(#arrowHead)"></line><rect x="300px" y="105px" width="47px" height="17px"></rect><text x="324px" y="105px"><tspan x="324" dy="12.783783783783784">Type</tspan></text><line x1="324px" y1="87px" x2="324px" y2="105px" marker-end="url(#arrowHead)"></line><rect x="350px" y="105px" width="47px" height="17px"></rect><text x="374px" y="105px"><tspan x="374" dy="12.783783783783784">{</tspan></text><line x1="327px" y1="87px" x2="374px" y2="105px" marker-end="url(#arrowHead)"></line><rect x="400px" y="105px" width="47px" height="17px"></rect><text x="424px" y="105px"><tspan x="424" dy="12.783783783783784">Statements</tspan></text><line x1="331px" y1="87px" x2="424px" y2="105px" marker-end="url(#arrowHead)"></line><rect x="451px" y="105px" width="47px" height="17px"></rect><text x="474px" y="105px"><tspan x="474" dy="12.783783783783784">return</tspan></text><line x1="334px" y1="87px" x2="474px" y2="105px" marker-end="url(#arrowHead)"></line><rect x="501px" y="105px" width="47px" height="17px"></rect><text x="525px" y="105px"><tspan x="525" dy="12.783783783783784">ID</tspan></text><line x1="338px" y1="87px" x2="525px" y2="105px" marker-end="url(#arrowHead)"></line><rect x="551px" y="105px" width="47px" height="17px"></rect><text x="575px" y="105px"><tspan x="575" dy="12.783783783783784">SEMICOLON</tspan></text><line x1="341px" y1="87px" x2="575px" y2="105px" marker-end="url(#arrowHead)"></line><rect x="601px" y="105px" width="47px" height="17px"></rect><text x="625px" y="105px"><tspan x="625" dy="12.783783783783784">}</tspan></text><line x1="345px" y1="87px" x2="625px" y2="105px" marker-end="url(#arrowHead)"></line><rect x="658px" y="105px" width="47px" height="17px"></rect><text x="682px" y="105px"><tspan x="682" dy="12.783783783783784">EPSILON</tspan></text><line x1="682px" y1="87px" x2="682px" y2="105px" marker-end="url(#arrowHead)"></line><rect x="715px" y="105px" width="47px" height="17px"></rect><text x="739px" y="105px"><tspan x="739" dy="12.783783783783784">DeclarationStmt</tspan></text><line x1="739px" y1="87px" x2="739px" y2="105px" marker-end="url(#arrowHead)"></line><rect x="773px" y="105px" width="47px" height="17px"></rect><text x="797px" y="105px"><tspan x="797" dy="12.783783783783784">Stmt</tspan></text><line x1="848px" y1="87px" x2="797px" y2="105px" marker-end="url(#arrowHead)"></line><rect x="891px" y="105px" width="47px" height="17px"></rect><text x="915px" y="105px"><tspan x="915" dy="12.783783783783784">more_Stmts</tspan></text><line x1="864px" y1="87px" x2="915px" y2="105px" marker-end="url(#arrowHead)"></line><rect x="-1px" y="140px" width="47px" height="17px"></rect><text x="23px" y="140px"><tspan x="23" dy="12.783783783783784">ID</tspan></text><line x1="159px" y1="122px" x2="23px" y2="140px" marker-end="url(#arrowHead)"></line><rect x="50px" y="140px" width="47px" height="17px"></rect><text x="73px" y="140px"><tspan x="73" dy="12.783783783783784">COLON</tspan></text><line x1="169px" y1="122px" x2="73px" y2="140px" marker-end="url(#arrowHead)"></line><rect x="100px" y="140px" width="47px" height="17px"></rect><text x="124px" y="140px"><tspan x="124" dy="12.783783783783784">Type</tspan></text><line x1="178px" y1="122px" x2="124px" y2="140px" marker-end="url(#arrowHead)"></line><rect x="150px" y="140px" width="47px" height="17px"></rect><text x="174px" y="140px"><tspan x="174" dy="12.783783783783784">RemainingList</tspan></text><line x1="188px" y1="122px" x2="174px" y2="140px" marker-end="url(#arrowHead)"></line><rect x="239px" y="140px" width="47px" height="17px"></rect><text x="263px" y="140px"><tspan x="263" dy="12.783783783783784">i32</tspan></text><line x1="324px" y1="122px" x2="263px" y2="140px" marker-end="url(#arrowHead)"></line><rect x="329px" y="140px" width="47px" height="17px"></rect><text x="353px" y="140px"><tspan x="353" dy="12.783783783783784">Stmt</tspan></text><line x1="424px" y1="122px" x2="353px" y2="140px" marker-end="url(#arrowHead)"></line><rect x="387px" y="140px" width="47px" height="17px"></rect><text x="411px" y="140px"><tspan x="411" dy="12.783783783783784">let</tspan></text><line x1="725px" y1="122px" x2="411px" y2="140px" marker-end="url(#arrowHead)"></line><rect x="438px" y="140px" width="47px" height="17px"></rect><text x="462px" y="140px"><tspan x="462" dy="12.783783783783784">mut</tspan></text><line x1="735px" y1="122px" x2="462px" y2="140px" marker-end="url(#arrowHead)"></line><rect x="566px" y="140px" width="47px" height="17px"></rect><text x="590px" y="140px"><tspan x="590" dy="12.783783783783784">Declaration</tspan></text><line x1="744px" y1="122px" x2="590px" y2="140px" marker-end="url(#arrowHead)"></line><rect x="617px" y="140px" width="47px" height="17px"></rect><text x="640px" y="140px"><tspan x="640" dy="12.783783783783784">SEMICOLON</tspan></text><line x1="754px" y1="122px" x2="640px" y2="140px" marker-end="url(#arrowHead)"></line><rect x="674px" y="140px" width="47px" height="17px"></rect><text x="698px" y="140px"><tspan x="698" dy="12.783783783783784">ID</tspan></text><line x1="789px" y1="122px" x2="698px" y2="140px" marker-end="url(#arrowHead)"></line><rect x="724px" y="140px" width="47px" height="17px"></rect><text x="748px" y="140px"><tspan x="748" dy="12.783783783783784">IDStmts</tspan></text><line x1="805px" y1="122px" x2="748px" y2="140px" marker-end="url(#arrowHead)"></line><rect x="852px" y="140px" width="47px" height="17px"></rect><text x="875px" y="140px"><tspan x="875" dy="12.783783783783784">Stmt</tspan></text><line x1="907px" y1="122px" x2="875px" y2="140px" marker-end="url(#arrowHead)"></line><rect x="930px" y="140px" width="47px" height="17px"></rect><text x="954px" y="140px"><tspan x="954" dy="12.783783783783784">more_Stmts</tspan></text><line x1="923px" y1="122px" x2="954px" y2="140px" marker-end="url(#arrowHead)"></line><rect x="-1px" y="175px" width="47px" height="17px"></rect><text x="23px" y="175px"><tspan x="23" dy="12.783783783783784">i32</tspan></text><line x1="124px" y1="158px" x2="23px" y2="175px" marker-end="url(#arrowHead)"></line><rect x="57px" y="175px" width="47px" height="17px"></rect><text x="81px" y="175px"><tspan x="81" dy="12.783783783783784">COMMA</tspan></text><line x1="162px" y1="158px" x2="81px" y2="175px" marker-end="url(#arrowHead)"></line><rect x="107px" y="175px" width="47px" height="17px"></rect><text x="131px" y="175px"><tspan x="131" dy="12.783783783783784">Parameter_List</tspan></text><line x1="174px" y1="158px" x2="131px" y2="175px" marker-end="url(#arrowHead)"></line><rect x="157px" y="175px" width="47px" height="17px"></rect><text x="181px" y="175px"><tspan x="181" dy="12.783783783783784">RemainingList</tspan></text><line x1="186px" y1="158px" x2="181px" y2="175px" marker-end="url(#arrowHead)"></line><rect x="277px" y="175px" width="47px" height="17px"></rect><text x="301px" y="175px"><tspan x="301" dy="12.783783783783784">DeclarationStmt</tspan></text><line x1="345px" y1="158px" x2="301px" y2="175px" marker-end="url(#arrowHead)"></line><rect x="381px" y="175px" width="47px" height="17px"></rect><text x="405px" y="175px"><tspan x="405" dy="12.783783783783784">more_Stmts</tspan></text><line x1="361px" y1="158px" x2="405px" y2="175px" marker-end="url(#arrowHead)"></line><rect x="438px" y="175px" width="47px" height="17px"></rect><text x="462px" y="175px"><tspan x="462" dy="12.783783783783784">EPSILON</tspan></text><line x1="462px" y1="158px" x2="462px" y2="175px" marker-end="url(#arrowHead)"></line><rect x="495px" y="175px" width="47px" height="17px"></rect><text x="519px" y="175px"><tspan x="519" dy="12.783783783783784">ID</tspan></text><line x1="576px" y1="158px" x2="519px" y2="175px" marker-end="url(#arrowHead)"></line><rect x="545px" y="175px" width="47px" height="17px"></rect><text x="569px" y="175px"><tspan x="569" dy="12.783783783783784">ASSIGNOP</tspan></text><line x1="586px" y1="158px" x2="569px" y2="175px" marker-end="url(#arrowHead)"></line><rect x="596px" y="175px" width="47px" height="17px"></rect><text x="619px" y="175px"><tspan x="619" dy="12.783783783783784">Arith_Expn</tspan></text><line x1="595px" y1="158px" x2="619px" y2="175px" marker-end="url(#arrowHead)"></line><rect x="649px" y="175px" width="47px" height="17px"></rect><text x="673px" y="175px"><tspan x="673" dy="12.783783783783784">more_types</tspan></text><line x1="605px" y1="158px" x2="673px" y2="175px" marker-end="url(#arrowHead)"></line><rect x="719px" y="175px" width="47px" height="17px"></rect><text x="743px" y="175px"><tspan x="743" dy="12.783783783783784">AssignStmt_type1</tspan></text><line x1="748px" y1="158px" x2="743px" y2="175px" marker-end="url(#arrowHead)"></line><rect x="852px" y="175px" width="47px" height="17px"></rect><text x="875px" y="175px"><tspan x="875" dy="12.783783783783784">OStmt</tspan></text><line x1="875px" y1="158px" x2="875px" y2="175px" marker-end="url(#arrowHead)"></line><rect x="930px" y="175px" width="47px" height="17px"></rect><text x="954px" y="175px"><tspan x="954" dy="12.783783783783784">EPSILON</tspan></text><line x1="954px" y1="158px" x2="954px" y2="175px" marker-end="url(#arrowHead)"></line><rect x="0px" y="210px" width="47px" height="17px"></rect><text x="23px" y="210px"><tspan x="23" dy="12.783783783783784">ID</tspan></text><line x1="119px" y1="193px" x2="23px" y2="210px" marker-end="url(#arrowHead)"></line><rect x="50px" y="210px" width="47px" height="17px"></rect><text x="73px" y="210px"><tspan x="73" dy="12.783783783783784">COLON</tspan></text><line x1="131px" y1="193px" x2="73px" y2="210px" marker-end="url(#arrowHead)"></line><rect x="100px" y="210px" width="47px" height="17px"></rect><text x="124px" y="210px"><tspan x="124" dy="12.783783783783784">Type</tspan></text><line x1="143px" y1="193px" x2="124px" y2="210px" marker-end="url(#arrowHead)"></line><rect x="157px" y="210px" width="47px" height="17px"></rect><text x="181px" y="210px"><tspan x="181" dy="12.783783783783784">EPSILON</tspan></text><line x1="181px" y1="193px" x2="181px" y2="210px" marker-end="url(#arrowHead)"></line><rect x="214px" y="210px" width="47px" height="17px"></rect><text x="238px" y="210px"><tspan x="238" dy="12.783783783783784">let</tspan></text><line x1="286px" y1="193px" x2="238px" y2="210px" marker-end="url(#arrowHead)"></line><rect x="264px" y="210px" width="47px" height="17px"></rect><text x="288px" y="210px"><tspan x="288" dy="12.783783783783784">mut</tspan></text><line x1="296px" y1="193px" x2="288px" y2="210px" marker-end="url(#arrowHead)"></line><rect x="315px" y="210px" width="47px" height="17px"></rect><text x="338px" y="210px"><tspan x="338" dy="12.783783783783784">Declaration</tspan></text><line x1="306px" y1="193px" x2="338px" y2="210px" marker-end="url(#arrowHead)"></line><rect x="365px" y="210px" width="47px" height="17px"></rect><text x="389px" y="210px"><tspan x="389" dy="12.783783783783784">SEMICOLON</tspan></text><line x1="315px" y1="193px" x2="389px" y2="210px" marker-end="url(#arrowHead)"></line><rect x="422px" y="210px" width="47px" height="17px"></rect><text x="446px" y="210px"><tspan x="446" dy="12.783783783783784">Stmt</tspan></text><line x1="397px" y1="193px" x2="446px" y2="210px" marker-end="url(#arrowHead)"></line><rect x="472px" y="210px" width="47px" height="17px"></rect><text x="496px" y="210px"><tspan x="496" dy="12.783783783783784">more_Stmts</tspan></text><line x1="413px" y1="193px" x2="496px" y2="210px" marker-end="url(#arrowHead)"></line><rect x="529px" y="210px" width="47px" height="17px"></rect><text x="553px" y="210px"><tspan x="553" dy="12.783783783783784">ArithTerm</tspan></text><line x1="619px" y1="193px" x2="553px" y2="210px" marker-end="url(#arrowHead)"></line><rect x="587px" y="210px" width="47px" height="17px"></rect><text x="610px" y="210px"><tspan x="610" dy="12.783783783783784">EPSILON</tspan></text><line x1="673px" y1="193px" x2="610px" y2="210px" marker-end="url(#arrowHead)"></line><rect x="644px" y="210px" width="47px" height="17px"></rect><text x="668px" y="210px"><tspan x="668" dy="12.783783783783784">ASSIGNOP</tspan></text><line x1="735px" y1="193px" x2="668px" y2="210px" marker-end="url(#arrowHead)"></line><rect x="694px" y="210px" width="47px" height="17px"></rect><text x="718px" y="210px"><tspan x="718" dy="12.783783783783784">Single_Assn</tspan></text><line x1="751px" y1="193px" x2="718px" y2="210px" marker-end="url(#arrowHead)"></line><rect x="751px" y="210px" width="47px" height="17px"></rect><text x="775px" y="210px"><tspan x="775" dy="12.783783783783784">print</tspan></text><line x1="859px" y1="193px" x2="775px" y2="210px" marker-end="url(#arrowHead)"></line><rect x="801px" y="210px" width="47px" height="17px"></rect><text x="825px" y="210px"><tspan x="825" dy="12.783783783783784">(</tspan></text><line x1="867px" y1="193px" x2="825px" y2="210px" marker-end="url(#arrowHead)"></line><rect x="852px" y="210px" width="47px" height="17px"></rect><text x="875px" y="210px"><tspan x="875" dy="12.783783783783784">ID</tspan></text><line x1="875px" y1="193px" x2="875px" y2="210px" marker-end="url(#arrowHead)"></line><rect x="902px" y="210px" width="47px" height="17px"></rect><text x="926px" y="210px"><tspan x="926" dy="12.783783783783784">)</tspan></text><line x1="883px" y1="193px" x2="926px" y2="210px" marker-end="url(#arrowHead)"></line><rect x="952px" y="210px" width="47px" height="17px"></rect><text x="976px" y="210px"><tspan x="976" dy="12.783783783783784">SEMICOLON</tspan></text><line x1="891px" y1="193px" x2="976px" y2="210px" marker-end="url(#arrowHead)"></line><rect x="71px" y="245px" width="47px" height="17px"></rect><text x="95px" y="245px"><tspan x="95" dy="12.783783783783784">i32</tspan></text><line x1="124px" y1="228px" x2="95px" y2="245px" marker-end="url(#arrowHead)"></line><rect x="182px" y="245px" width="47px" height="17px"></rect><text x="206px" y="245px"><tspan x="206" dy="12.783783783783784">EPSILON</tspan></text><line x1="288px" y1="228px" x2="206px" y2="245px" marker-end="url(#arrowHead)"></line><rect x="239px" y="245px" width="47px" height="17px"></rect><text x="263px" y="245px"><tspan x="263" dy="12.783783783783784">ID</tspan></text><line x1="324px" y1="228px" x2="263px" y2="245px" marker-end="url(#arrowHead)"></line><rect x="289px" y="245px" width="47px" height="17px"></rect><text x="313px" y="245px"><tspan x="313" dy="12.783783783783784">ASSIGNOP</tspan></text><line x1="334px" y1="228px" x2="313px" y2="245px" marker-end="url(#arrowHead)"></line><rect x="340px" y="245px" width="47px" height="17px"></rect><text x="363px" y="245px"><tspan x="363" dy="12.783783783783784">Arith_Expn</tspan></text><line x1="343px" y1="228px" x2="363px" y2="245px" marker-end="url(#arrowHead)"></line><rect x="390px" y="245px" width="47px" height="17px"></rect><text x="414px" y="245px"><tspan x="414" dy="12.783783783783784">more_types</tspan></text><line x1="353px" y1="228px" x2="414px" y2="245px" marker-end="url(#arrowHead)"></line><rect x="447px" y="245px" width="47px" height="17px"></rect><text x="471px" y="245px"><tspan x="471" dy="12.783783783783784">ID</tspan></text><line x1="438px" y1="228px" x2="471px" y2="245px" marker-end="url(#arrowHead)"></line><rect x="497px" y="245px" width="47px" height="17px"></rect><text x="521px" y="245px"><tspan x="521" dy="12.783783783783784">IDStmts</tspan></text><line x1="454px" y1="228px" x2="521px" y2="245px" marker-end="url(#arrowHead)"></line><rect x="554px" y="245px" width="47px" height="17px"></rect><text x="578px" y="245px"><tspan x="578" dy="12.783783783783784">EPSILON</tspan></text><line x1="496px" y1="228px" x2="578px" y2="245px" marker-end="url(#arrowHead)"></line><rect x="612px" y="245px" width="47px" height="17px"></rect><text x="636px" y="245px"><tspan x="636" dy="12.783783783783784">factor</tspan></text><line x1="553px" y1="228px" x2="636px" y2="245px" marker-end="url(#arrowHead)"></line><rect x="723px" y="245px" width="47px" height="17px"></rect><text x="747px" y="245px"><tspan x="747" dy="12.783783783783784">ArithExpn</tspan></text><line x1="718px" y1="228px" x2="747px" y2="245px" marker-end="url(#arrowHead)"></line><rect x="336px" y="281px" width="47px" height="17px"></rect><text x="360px" y="281px"><tspan x="360" dy="12.783783783783784">ArithTerm</tspan></text><line x1="363px" y1="263px" x2="360px" y2="281px" marker-end="url(#arrowHead)"></line><rect x="393px" y="281px" width="47px" height="17px"></rect><text x="417px" y="281px"><tspan x="417" dy="12.783783783783784">EPSILON</tspan></text><line x1="414px" y1="263px" x2="417px" y2="281px" marker-end="url(#arrowHead)"></line><rect x="497px" y="281px" width="47px" height="17px"></rect><text x="521px" y="281px"><tspan x="521" dy="12.783783783783784">AssignStmt_type1</tspan></text><line x1="521px" y1="263px" x2="521px" y2="281px" marker-end="url(#arrowHead)"></line><rect x="612px" y="281px" width="47px" height="17px"></rect><text x="636px" y="281px"><tspan x="636" dy="12.783783783783784">relType</tspan></text><line x1="636px" y1="263px" x2="636px" y2="281px" marker-end="url(#arrowHead)"></line><rect x="723px" y="281px" width="47px" height="17px"></rect><text x="747px" y="281px"><tspan x="747" dy="12.783783783783784">ArithTerm</tspan></text><line x1="747px" y1="263px" x2="747px" y2="281px" marker-end="url(#arrowHead)"></line><rect x="336px" y="316px" width="47px" height="17px"></rect><text x="360px" y="316px"><tspan x="360" dy="12.783783783783784">factor</tspan></text><line x1="360px" y1="298px" x2="360px" y2="316px" marker-end="url(#arrowHead)"></line><rect x="435px" y="316px" width="47px" height="17px"></rect><text x="459px" y="316px"><tspan x="459" dy="12.783783783783784">ASSIGNOP</tspan></text><line x1="509px" y1="298px" x2="459px" y2="316px" marker-end="url(#arrowHead)"></line><rect x="497px" y="316px" width="47px" height="17px"></rect><text x="521px" y="316px"><tspan x="521" dy="12.783783783783784">Single_Assn</tspan></text><line x1="521px" y1="298px" x2="521px" y2="316px" marker-end="url(#arrowHead)"></line><rect x="557px" y="316px" width="47px" height="17px"></rect><text x="581px" y="316px"><tspan x="581" dy="12.783783783783784">SEMICOLON</tspan></text><line x1="533px" y1="298px" x2="581px" y2="316px" marker-end="url(#arrowHead)"></line><rect x="614px" y="316px" width="47px" height="17px"></rect><text x="638px" y="316px"><tspan x="638" dy="12.783783783783784">value</tspan></text><line x1="636px" y1="298px" x2="638px" y2="316px" marker-end="url(#arrowHead)"></line><rect x="723px" y="316px" width="47px" height="17px"></rect><text x="747px" y="316px"><tspan x="747" dy="12.783783783783784">factor</tspan></text><line x1="747px" y1="298px" x2="747px" y2="316px" marker-end="url(#arrowHead)"></line><rect x="336px" y="351px" width="47px" height="17px"></rect><text x="360px" y="351px"><tspan x="360" dy="12.783783783783784">relType</tspan></text><line x1="360px" y1="333px" x2="360px" y2="351px" marker-end="url(#arrowHead)"></line><rect x="497px" y="351px" width="47px" height="17px"></rect><text x="521px" y="351px"><tspan x="521" dy="12.783783783783784">ArithExpn</tspan></text><line x1="521px" y1="333px" x2="521px" y2="351px" marker-end="url(#arrowHead)"></line><rect x="614px" y="351px" width="47px" height="17px"></rect><text x="638px" y="351px"><tspan x="638" dy="12.783783783783784">NUM</tspan></text><line x1="638px" y1="333px" x2="638px" y2="351px" marker-end="url(#arrowHead)"></line><rect x="723px" y="351px" width="47px" height="17px"></rect><text x="747px" y="351px"><tspan x="747" dy="12.783783783783784">relType</tspan></text><line x1="747px" y1="333px" x2="747px" y2="351px" marker-end="url(#arrowHead)"></line><rect x="336px" y="386px" width="47px" height="17px"></rect><text x="360px" y="386px"><tspan x="360" dy="12.783783783783784">value</tspan></text><line x1="360px" y1="368px" x2="360px" y2="386px" marker-end="url(#arrowHead)"></line><rect x="466px" y="386px" width="47px" height="17px"></rect><text x="490px" y="386px"><tspan x="490" dy="12.783783783783784">ArithTerm</tspan></text><line x1="513px" y1="368px" x2="490px" y2="386px" marker-end="url(#arrowHead)"></line><rect x="528px" y="386px" width="47px" height="17px"></rect><text x="552px" y="386px"><tspan x="552" dy="12.783783783783784">more_Terms</tspan></text><line x1="529px" y1="368px" x2="552px" y2="386px" marker-end="url(#arrowHead)"></line><rect x="692px" y="386px" width="47px" height="17px"></rect><text x="715px" y="386px"><tspan x="715" dy="12.783783783783784">ID</tspan></text><line x1="739px" y1="368px" x2="715px" y2="386px" marker-end="url(#arrowHead)"></line><rect x="754px" y="386px" width="47px" height="17px"></rect><text x="778px" y="386px"><tspan x="778" dy="12.783783783783784">IDStmts2</tspan></text><line x1="754px" y1="368px" x2="778px" y2="386px" marker-end="url(#arrowHead)"></line><rect x="336px" y="421px" width="47px" height="17px"></rect><text x="360px" y="421px"><tspan x="360" dy="12.783783783783784">NUM</tspan></text><line x1="360px" y1="404px" x2="360px" y2="421px" marker-end="url(#arrowHead)"></line><rect x="428px" y="421px" width="47px" height="17px"></rect><text x="452px" y="421px"><tspan x="452" dy="12.783783783783784">factor</tspan></text><line x1="482px" y1="404px" x2="452px" y2="421px" marker-end="url(#arrowHead)"></line><rect x="484px" y="421px" width="47px" height="17px"></rect><text x="508px" y="421px"><tspan x="508" dy="12.783783783783784">more_factors</tspan></text><line x1="498px" y1="404px" x2="508px" y2="421px" marker-end="url(#arrowHead)"></line><rect x="541px" y="421px" width="47px" height="17px"></rect><text x="565px" y="421px"><tspan x="565" dy="12.783783783783784">Op_Low</tspan></text><line x1="552px" y1="404px" x2="565px" y2="421px" marker-end="url(#arrowHead)"></line><rect x="754px" y="421px" width="47px" height="17px"></rect><text x="778px" y="421px"><tspan x="778" dy="12.783783783783784">FunCallStmt</tspan></text><line x1="778px" y1="404px" x2="778px" y2="421px" marker-end="url(#arrowHead)"></line><rect x="427px" y="456px" width="47px" height="17px"></rect><text x="451px" y="456px"><tspan x="451" dy="12.783783783783784">ID</tspan></text><line x1="452px" y1="439px" x2="451px" y2="456px" marker-end="url(#arrowHead)"></line><rect x="485px" y="456px" width="47px" height="17px"></rect><text x="508px" y="456px"><tspan x="508" dy="12.783783783783784">EPSILON</tspan></text><line x1="508px" y1="439px" x2="508px" y2="456px" marker-end="url(#arrowHead)"></line><rect x="542px" y="456px" width="47px" height="17px"></rect><text x="566px" y="456px"><tspan x="566" dy="12.783783783783784">ArithExpn</tspan></text><line x1="565px" y1="439px" x2="566px" y2="456px" marker-end="url(#arrowHead)"></line><rect x="723px" y="456px" width="47px" height="17px"></rect><text x="747px" y="456px"><tspan x="747" dy="12.783783783783784">FunCall</tspan></text><line x1="770px" y1="439px" x2="747px" y2="456px" marker-end="url(#arrowHead)"></line><rect x="785px" y="456px" width="47px" height="17px"></rect><text x="809px" y="456px"><tspan x="809" dy="12.783783783783784">SEMICOLON</tspan></text><line x1="785px" y1="439px" x2="809px" y2="456px" marker-end="url(#arrowHead)"></line><rect x="511px" y="491px" width="47px" height="17px"></rect><text x="535px" y="491px"><tspan x="535" dy="12.783783783783784">ArithTerm</tspan></text><line x1="558px" y1="474px" x2="535px" y2="491px" marker-end="url(#arrowHead)"></line><rect x="573px" y="491px" width="47px" height="17px"></rect><text x="597px" y="491px"><tspan x="597" dy="12.783783783783784">more_Terms</tspan></text><line x1="574px" y1="474px" x2="597px" y2="491px" marker-end="url(#arrowHead)"></line><rect x="661px" y="491px" width="47px" height="17px"></rect><text x="684px" y="491px"><tspan x="684" dy="12.783783783783784">(</tspan></text><line x1="735px" y1="474px" x2="684px" y2="491px" marker-end="url(#arrowHead)"></line><rect x="723px" y="491px" width="47px" height="17px"></rect><text x="747px" y="491px"><tspan x="747" dy="12.783783783783784">IDList</tspan></text><line x1="747px" y1="474px" x2="747px" y2="491px" marker-end="url(#arrowHead)"></line><rect x="785px" y="491px" width="47px" height="17px"></rect><text x="809px" y="491px"><tspan x="809" dy="12.783783783783784">)</tspan></text><line x1="758px" y1="474px" x2="809px" y2="491px" marker-end="url(#arrowHead)"></line><rect x="473px" y="527px" width="47px" height="17px"></rect><text x="497px" y="527px"><tspan x="497" dy="12.783783783783784">factor</tspan></text><line x1="527px" y1="509px" x2="497px" y2="527px" marker-end="url(#arrowHead)"></line><rect x="529px" y="527px" width="47px" height="17px"></rect><text x="553px" y="527px"><tspan x="553" dy="12.783783783783784">more_factors</tspan></text><line x1="543px" y1="509px" x2="553px" y2="527px" marker-end="url(#arrowHead)"></line><rect x="586px" y="527px" width="47px" height="17px"></rect><text x="610px" y="527px"><tspan x="610" dy="12.783783783783784">EPSILON</tspan></text><line x1="597px" y1="509px" x2="610px" y2="527px" marker-end="url(#arrowHead)"></line><rect x="692px" y="527px" width="47px" height="17px"></rect><text x="715px" y="527px"><tspan x="715" dy="12.783783783783784">ID</tspan></text><line x1="739px" y1="509px" x2="715px" y2="527px" marker-end="url(#arrowHead)"></line><rect x="754px" y="527px" width="47px" height="17px"></rect><text x="778px" y="527px"><tspan x="778" dy="12.783783783783784">more_Ids</tspan></text><line x1="754px" y1="509px" x2="778px" y2="527px" marker-end="url(#arrowHead)"></line><rect x="472px" y="562px" width="47px" height="17px"></rect><text x="496px" y="562px"><tspan x="496" dy="12.783783783783784">ID</tspan></text><line x1="497px" y1="544px" x2="496px" y2="562px" marker-end="url(#arrowHead)"></line><rect x="529px" y="562px" width="47px" height="17px"></rect><text x="553px" y="562px"><tspan x="553" dy="12.783783783783784">EPSILON</tspan></text><line x1="553px" y1="544px" x2="553px" y2="562px" marker-end="url(#arrowHead)"></line><rect x="723px" y="562px" width="47px" height="17px"></rect><text x="747px" y="562px"><tspan x="747" dy="12.783783783783784">COMMA</tspan></text><line x1="770px" y1="544px" x2="747px" y2="562px" marker-end="url(#arrowHead)"></line><rect x="785px" y="562px" width="47px" height="17px"></rect><text x="809px" y="562px"><tspan x="809" dy="12.783783783783784">IDList</tspan></text><line x1="785px" y1="544px" x2="809px" y2="562px" marker-end="url(#arrowHead)"></line><rect x="754px" y="597px" width="47px" height="17px"></rect><text x="778px" y="597px"><tspan x="778" dy="12.783783783783784">ID</tspan></text><line x1="801px" y1="579px" x2="778px" y2="597px" marker-end="url(#arrowHead)"></line><rect x="816px" y="597px" width="47px" height="17px"></rect><text x="840px" y="597px"><tspan x="840" dy="12.783783783783784">more_Ids</tspan></text><line x1="817px" y1="579px" x2="840px" y2="597px" marker-end="url(#arrowHead)"></line><rect x="816px" y="632px" width="47px" height="17px"></rect><text x="840px" y="632px"><tspan x="840" dy="12.783783783783784">EPSILON</tspan></text><line x1="840px" y1="614px" x2="840px" y2="632px" marker-end="url(#arrowHead)"></line></g>
</svg>